<svg xmlns="http://www.w3.org/2000/svg" viewBox="0 0 24 29" width="384" height="464" shape-rendering="crispEdges">
<title>dstrack - logo</title>
<rect x="11" y="1" width="2" height="1" fill="#a99cff"></rect><rect x="9" y="2" width="6" height="1" fill="#a99cff"></rect><rect x="7" y="3" width="10" height="1" fill="#a99cff"></rect><rect x="5" y="4" width="14" height="1" fill="#a99cff"></rect><rect x="3" y="5" width="18" height="1" fill="#a99cff"></rect><rect x="1" y="6" width="22" height="1" fill="#a99cff"></rect><rect x="1" y="7" width="2" height="1" fill="#7060e0"></rect><rect x="3" y="7" width="18" height="1" fill="#a99cff"></rect><rect x="21" y="7" width="2" height="1" fill="#4a3cc0"></rect><rect x="1" y="8" width="4" height="1" fill="#7060e0"></rect><rect x="5" y="8" width="14" height="1" fill="#a99cff"></rect><rect x="19" y="8" width="4" height="1" fill="#4a3cc0"></rect><rect x="3" y="9" width="4" height="1" fill="#7060e0"></rect><rect x="7" y="9" width="10" height="1" fill="#a99cff"></rect><rect x="17" y="9" width="4" height="1" fill="#4a3cc0"></rect><rect x="5" y="10" width="4" height="1" fill="#7060e0"></rect><rect x="9" y="10" width="6" height="1" fill="#a99cff"></rect><rect x="15" y="10" width="4" height="1" fill="#4a3cc0"></rect><rect x="5" y="11" width="2" height="1" fill="#8b7bf0"></rect><rect x="7" y="11" width="4" height="1" fill="#7060e0"></rect><rect x="11" y="11" width="2" height="1" fill="#a99cff"></rect><rect x="13" y="11" width="4" height="1" fill="#4a3cc0"></rect><rect x="17" y="11" width="2" height="1" fill="#8b7bf0"></rect><rect x="3" y="12" width="6" height="1" fill="#8b7bf0"></rect><rect x="9" y="12" width="2" height="1" fill="#7060e0"></rect><rect x="11" y="12" width="2" height="1" fill="#2f2490"></rect><rect x="13" y="12" width="2" height="1" fill="#4a3cc0"></rect><rect x="15" y="12" width="6" height="1" fill="#8b7bf0"></rect><rect x="1" y="13" width="10" height="1" fill="#8b7bf0"></rect><rect x="11" y="13" width="2" height="1" fill="#2f2490"></rect><rect x="13" y="13" width="10" height="1" fill="#8b7bf0"></rect><rect x="1" y="14" width="2" height="1" fill="#5b4bd6"></rect><rect x="3" y="14" width="18" height="1" fill="#8b7bf0"></rect><rect x="21" y="14" width="2" height="1" fill="#3a2fa6"></rect><rect x="1" y="15" width="4" height="1" fill="#5b4bd6"></rect><rect x="5" y="15" width="14" height="1" fill="#8b7bf0"></rect><rect x="19" y="15" width="4" height="1" fill="#3a2fa6"></rect><rect x="3" y="16" width="4" height="1" fill="#5b4bd6"></rect><rect x="7" y="16" width="10" height="1" fill="#8b7bf0"></rect><rect x="17" y="16" width="4" height="1" fill="#3a2fa6"></rect><rect x="5" y="17" width="4" height="1" fill="#5b4bd6"></rect><rect x="9" y="17" width="6" height="1" fill="#8b7bf0"></rect><rect x="15" y="17" width="4" height="1" fill="#3a2fa6"></rect><rect x="5" y="18" width="2" height="1" fill="#6a5be0"></rect><rect x="7" y="18" width="4" height="1" fill="#5b4bd6"></rect><rect x="11" y="18" width="2" height="1" fill="#8b7bf0"></rect><rect x="13" y="18" width="4" height="1" fill="#3a2fa6"></rect><rect x="17" y="18" width="2" height="1" fill="#6a5be0"></rect><rect x="3" y="19" width="6" height="1" fill="#6a5be0"></rect><rect x="9" y="19" width="2" height="1" fill="#5b4bd6"></rect><rect x="11" y="19" width="2" height="1" fill="#241b6b"></rect><rect x="13" y="19" width="2" height="1" fill="#3a2fa6"></rect><rect x="15" y="19" width="6" height="1" fill="#6a5be0"></rect><rect x="1" y="20" width="10" height="1" fill="#6a5be0"></rect><rect x="11" y="20" width="2" height="1" fill="#241b6b"></rect><rect x="13" y="20" width="10" height="1" fill="#6a5be0"></rect><rect x="1" y="21" width="2" height="1" fill="#463aae"></rect><rect x="3" y="21" width="18" height="1" fill="#6a5be0"></rect><rect x="21" y="21" width="2" height="1" fill="#2c2185"></rect><rect x="1" y="22" width="4" height="1" fill="#463aae"></rect><rect x="5" y="22" width="14" height="1" fill="#6a5be0"></rect><rect x="19" y="22" width="4" height="1" fill="#2c2185"></rect><rect x="3" y="23" width="4" height="1" fill="#463aae"></rect><rect x="7" y="23" width="10" height="1" fill="#6a5be0"></rect><rect x="17" y="23" width="4" height="1" fill="#2c2185"></rect><rect x="5" y="24" width="4" height="1" fill="#463aae"></rect><rect x="9" y="24" width="6" height="1" fill="#6a5be0"></rect><rect x="15" y="24" width="4" height="1" fill="#2c2185"></rect><rect x="7" y="25" width="4" height="1" fill="#463aae"></rect><rect x="11" y="25" width="2" height="1" fill="#6a5be0"></rect><rect x="13" y="25" width="4" height="1" fill="#2c2185"></rect><rect x="9" y="26" width="2" height="1" fill="#463aae"></rect><rect x="11" y="26" width="2" height="1" fill="#1d1568"></rect><rect x="13" y="26" width="2" height="1" fill="#2c2185"></rect><rect x="11" y="27" width="2" height="1" fill="#1d1568"></rect>
</svg>
